<?xml version="1.0" encoding="UTF-8" standalone="no"?>
<!-- Created with Inkscape (http://www.inkscape.org/) -->

<svg
   width="57.837791mm"
   height="18.412935mm"
   viewBox="0 0 57.837792 18.412935"
   version="1.1"
   id="svg7137"
   sodipodi:docname="logo_w.svg"
   inkscape:version="1.3-dev (1:1.2.0-alpha1+devel+202204112350+10a540ef32)"
   xmlns:inkscape="http://www.inkscape.org/namespaces/inkscape"
   xmlns:sodipodi="http://sodipodi.sourceforge.net/DTD/sodipodi-0.dtd"
   xmlns="http://www.w3.org/2000/svg"
   xmlns:svg="http://www.w3.org/2000/svg">
  <sodipodi:namedview
     id="namedview7139"
     pagecolor="#ffffff"
     bordercolor="#666666"
     borderopacity="1.0"
     inkscape:pageshadow="2"
     inkscape:pageopacity="0.0"
     inkscape:pagecheckerboard="0"
     inkscape:deskcolor="#d1d1d1"
     inkscape:document-units="mm"
     showgrid="false"
     inkscape:zoom="2.8371965"
     inkscape:cx="108.7341"
     inkscape:cy="78.598715"
     inkscape:window-width="1366"
     inkscape:window-height="714"
     inkscape:window-x="1920"
     inkscape:window-y="339"
     inkscape:window-maximized="1"
     inkscape:current-layer="layer1" />
  <defs
     id="defs7134">
    <clipPath
       clipPathUnits="userSpaceOnUse"
       id="clipPath2488">
      <path
         d="M 0,0 H 792 V 612 H 0 Z"
         id="path2486" />
    </clipPath>
    <clipPath
       clipPathUnits="userSpaceOnUse"
       id="clipPath2516">
      <path
         d="M 0,0 H 792 V 612 H 0 Z"
         id="path2514" />
    </clipPath>
    <clipPath
       clipPathUnits="userSpaceOnUse"
       id="clipPath2540">
      <path
         d="M 0,0 H 792 V 612 H 0 Z"
         id="path2538" />
    </clipPath>
    <clipPath
       clipPathUnits="userSpaceOnUse"
       id="clipPath2564">
      <path
         d="M 0,0 H 792 V 612 H 0 Z"
         id="path2562" />
    </clipPath>
    <clipPath
       clipPathUnits="userSpaceOnUse"
       id="clipPath2584">
      <path
         d="M 0,0 H 792 V 612 H 0 Z"
         id="path2582" />
    </clipPath>
    <clipPath
       clipPathUnits="userSpaceOnUse"
       id="clipPath2604">
      <path
         d="M 0,0 H 792 V 612 H 0 Z"
         id="path2602" />
    </clipPath>
    <clipPath
       clipPathUnits="userSpaceOnUse"
       id="clipPath2624">
      <path
         d="M 0,0 H 792 V 612 H 0 Z"
         id="path2622" />
    </clipPath>
  </defs>
  <g
     inkscape:label="Layer 1"
     inkscape:groupmode="layer"
     id="layer1">
    <g
       id="g2482"
       transform="matrix(0.35277777,0,0,-0.35277777,-75.594906,79.12845)"
       style="fill:#ffffff">
      <g
         id="g2484"
         clip-path="url(#clipPath2488)"
         style="fill:#ffffff">
        <g
           id="g2490"
           transform="translate(277.2686,191.1094)"
           style="fill:#ffffff">
          <path
             d="m 0,0 c 0,-5.89 -4.604,-10.521 -10.493,-10.521 -5.889,0 -10.493,4.631 -10.493,10.521 0,5.916 4.604,10.627 10.493,10.627 C -4.604,10.627 0,5.916 0,0 m -3.667,0 c 0,4.095 -2.998,7.2 -6.826,7.2 -3.828,0 -6.826,-3.105 -6.826,-7.2 0,-4.095 2.998,-7.121 6.826,-7.121 3.828,0 6.826,3.025 6.826,7.121"
             style="fill:#ffffff;fill-opacity:1;fill-rule:nonzero;stroke:none"
             id="path2492" />
        </g>
        <g
           id="g2494"
           transform="translate(293.105,187.6562)"
           style="fill:#ffffff">
          <path
             d="m 0,0 c 0,-4.203 -3.158,-7.067 -6.559,-7.067 -1.82,0 -3.292,0.536 -4.416,1.445 v -8.539 h -3.534 V 6.692 h 3.535 V 5.621 C -9.85,6.558 -8.378,7.093 -6.558,7.093 -3.158,7.093 0,4.203 0,0 m -3.427,0 c 0,2.462 -1.606,4.015 -3.747,4.015 -1.9,0 -3.801,-1.553 -3.801,-4.015 0,-2.463 1.901,-3.987 3.801,-3.987 2.142,-0.002 3.747,1.524 3.747,3.987"
             style="fill:#ffffff;fill-opacity:1;fill-rule:nonzero;stroke:none"
             id="path2496" />
        </g>
        <g
           id="g2498"
           transform="translate(307.9006,186.7197)"
           style="fill:#ffffff">
          <path
             d="m 0,0 h -10.172 c 0.348,-1.928 1.713,-3.105 3.346,-3.105 1.044,0 2.355,0.133 3.319,1.766 l 3.159,-0.669 c -1.178,-2.784 -3.56,-4.122 -6.479,-4.122 -3.774,0 -6.852,2.864 -6.852,7.067 0,4.202 3.078,7.092 6.906,7.092 3.56,0 6.638,-2.758 6.772,-6.826 z m -10.065,2.489 h 6.453 c -0.455,1.714 -1.74,2.463 -3.159,2.463 -1.34,0 -2.866,-0.803 -3.294,-2.463"
             style="fill:#ffffff;fill-opacity:1;fill-rule:nonzero;stroke:none"
             id="path2500" />
        </g>
        <g
           id="g2502"
           transform="translate(322.3176,189.1284)"
           style="fill:#ffffff">
          <path
             d="m 0,0 v -8.138 h -3.533 v 7.388 c 0,1.874 -1.071,3.132 -2.704,3.132 -2.007,0 -3.319,-1.338 -3.319,-4.604 v -5.916 h -3.533 V 5.22 h 3.532 V 4.015 c 1.044,1.044 2.436,1.606 4.203,1.606 C -2.141,5.621 0,3.319 0,0"
             style="fill:#ffffff;fill-opacity:1;fill-rule:nonzero;stroke:none"
             id="path2504" />
        </g>
      </g>
    </g>
    <g
       id="g2506"
       transform="matrix(0.35277777,0,0,-0.35277777,45.777688,15.278954)"
       style="fill:#ffffff">
      <path
         d="M 0,0 H -2.837 L -7.816,13.197 -12.822,0 h -2.81 l -6.666,20.344 h 3.8 l 4.471,-13.438 5.113,13.438 h 2.168 l 5.113,-13.438 4.47,13.438 h 3.827 z"
         style="fill:#ffffff;fill-opacity:1;fill-rule:nonzero;stroke:none"
         id="path2508" />
    </g>
    <g
       id="g2510"
       transform="matrix(0.35277777,0,0,-0.35277777,-75.594906,79.12845)"
       style="fill:#ffffff">
      <g
         id="g2512"
         clip-path="url(#clipPath2516)"
         style="fill:#ffffff">
        <g
           id="g2518"
           transform="translate(359.4077,194.4282)"
           style="fill:#ffffff">
          <path
             d="m 0,0 -0.187,-3.399 h -0.777 c -3.265,0 -4.765,-2.008 -4.765,-5.729 v -4.31 H -9.262 V -0.08 h 3.533 v -2.329 c 0.991,1.553 2.543,2.516 4.792,2.516 0.348,0 0.616,0 0.937,-0.107"
             style="fill:#ffffff;fill-opacity:1;fill-rule:nonzero;stroke:none"
             id="path2520" />
        </g>
        <g
           id="g2522"
           transform="translate(366.9221,185.916)"
           style="fill:#ffffff">
          <path
             d="m 0,0 c 0,-1.312 0.616,-2.035 1.687,-2.035 0.615,0 1.525,0.269 2.223,0.643 l 1.017,-2.944 c -1.392,-0.75 -2.355,-0.991 -3.479,-0.991 -3.186,0 -4.979,1.821 -4.979,5.06 v 5.809 h -2.865 v 2.89 h 2.864 v 4.845 l 3.533,1.071 V 8.432 H 5.168 V 5.542 H 0 Z"
             style="fill:#ffffff;fill-opacity:1;fill-rule:nonzero;stroke:none"
             id="path2524" />
        </g>
      </g>
    </g>
    <g
       id="g2526"
       transform="matrix(0.35277777,0,0,-0.35277777,26.765008,17.89653)"
       style="fill:#ffffff">
      <path
         d="M 0,0 H -0.795 L -1.542,2.05 -2.293,0 h -0.791 l -1.219,3.781 h 1.015 l 0.632,-2.039 0.791,2.039 h 0.647 L -0.432,1.742 0.205,3.781 H 1.22 Z"
         style="fill:#ffffff;fill-opacity:1;fill-rule:nonzero;stroke:none"
         id="path2528" />
    </g>
    <g
       id="g2530"
       transform="matrix(0.35277777,0,0,-0.35277777,28.531298,17.60697)"
       style="fill:#ffffff">
      <path
         d="M 0,0 H 0.781 V -0.821 H -1.737 V 0 h 0.781 V 2.135 H -1.737 V 2.96 H 0.781 V 2.135 H 0 Z"
         style="fill:#ffffff;fill-opacity:1;fill-rule:nonzero;stroke:none"
         id="path2532" />
    </g>
    <g
       id="g2534"
       transform="matrix(0.35277777,0,0,-0.35277777,-75.594906,79.12845)"
       style="fill:#ffffff">
      <g
         id="g2536"
         clip-path="url(#clipPath2540)"
         style="fill:#ffffff">
        <g
           id="g2542"
           transform="translate(300.8777,173.5708)"
           style="fill:#ffffff">
          <path
             d="M 0,0 -0.697,0.821 H -1.442 V 0 h -0.956 v 3.781 h 1.762 C 0.359,3.781 0.961,3.194 0.961,2.319 0.961,1.756 0.707,1.303 0.269,1.05 L 1.199,0 Z m -0.672,1.642 c 0.398,0 0.726,0.269 0.726,0.677 0,0.398 -0.328,0.643 -0.726,0.643 h -0.77 V 1.644 Z"
             style="fill:#ffffff;fill-opacity:1;fill-rule:nonzero;stroke:none"
             id="path2544" />
        </g>
      </g>
    </g>
    <g
       id="g2546"
       transform="matrix(0.35277777,0,0,-0.35277777,32.684868,17.89653)"
       style="fill:#ffffff">
      <path
         d="M 0,0 H -2.886 V 3.781 H -0.03 V 2.96 h -1.9 V 2.313 h 1.87 V 1.493 H -1.93 V 0.821 h 1.931 z"
         style="fill:#ffffff;fill-opacity:1;fill-rule:nonzero;stroke:none"
         id="path2548" />
    </g>
    <g
       id="g2550"
       transform="matrix(0.35277777,0,0,-0.35277777,34.564788,17.89653)"
       style="fill:#ffffff">
      <path
         d="m 0,0 h -2.791 v 3.781 h 0.955 V 0.821 H 0 Z"
         style="fill:#ffffff;fill-opacity:1;fill-rule:nonzero;stroke:none"
         id="path2552" />
    </g>
    <g
       id="g2554"
       transform="matrix(0.35277777,0,0,-0.35277777,36.473168,17.89653)"
       style="fill:#ffffff">
      <path
         d="M 0,0 H -2.886 V 3.781 H -0.03 V 2.96 H -1.931 V 2.313 H -0.06 V 1.493 H -1.931 V 0.821 H 0 Z"
         style="fill:#ffffff;fill-opacity:1;fill-rule:nonzero;stroke:none"
         id="path2556" />
    </g>
    <g
       id="g2558"
       transform="matrix(0.35277777,0,0,-0.35277777,-75.594906,79.12845)"
       style="fill:#ffffff">
      <g
         id="g2560"
         clip-path="url(#clipPath2564)"
         style="fill:#ffffff">
        <g
           id="g2566"
           transform="translate(323.2458,176.3374)"
           style="fill:#ffffff">
          <path
             d="m 0,0 -0.935,-0.189 c -0.08,0.383 -0.339,0.492 -0.563,0.492 -0.223,0 -0.408,-0.114 -0.408,-0.324 0,-0.148 0.08,-0.243 0.244,-0.293 l 0.737,-0.234 c 0.621,-0.203 0.96,-0.492 0.96,-1.084 0,-0.851 -0.746,-1.21 -1.488,-1.21 -0.821,0 -1.488,0.433 -1.582,1.155 l 0.98,0.199 c 0.079,-0.373 0.303,-0.533 0.632,-0.533 0.279,0 0.448,0.129 0.448,0.329 0,0.149 -0.08,0.254 -0.289,0.308 l -0.701,0.204 c -0.573,0.164 -0.961,0.458 -0.961,1.07 0,0.771 0.606,1.194 1.433,1.194 C -0.707,1.084 -0.125,0.707 0,0"
             style="fill:#ffffff;fill-opacity:1;fill-rule:nonzero;stroke:none"
             id="path2568" />
        </g>
        <g
           id="g2570"
           transform="translate(328.2451,176.3374)"
           style="fill:#ffffff">
          <path
             d="m 0,0 -0.936,-0.189 c -0.079,0.383 -0.338,0.492 -0.562,0.492 -0.223,0 -0.408,-0.114 -0.408,-0.324 0,-0.148 0.08,-0.243 0.244,-0.293 l 0.737,-0.234 c 0.621,-0.203 0.96,-0.492 0.96,-1.084 0,-0.851 -0.746,-1.21 -1.488,-1.21 -0.821,0 -1.488,0.433 -1.582,1.155 l 0.98,0.199 c 0.079,-0.373 0.303,-0.533 0.632,-0.533 0.279,0 0.448,0.129 0.448,0.329 0,0.149 -0.08,0.254 -0.289,0.308 l -0.702,0.205 c -0.572,0.164 -0.96,0.458 -0.96,1.07 0,0.771 0.606,1.194 1.433,1.194 C -0.707,1.084 -0.125,0.707 0,0"
             style="fill:#ffffff;fill-opacity:1;fill-rule:nonzero;stroke:none"
             id="path2572" />
        </g>
      </g>
    </g>
    <g
       id="g2574"
       transform="matrix(0.35277777,0,0,-0.35277777,42.643258,17.080379)"
       style="fill:#ffffff">
      <path
         d="M 0,0 H 1.776 V -0.821 H 0 V -2.313 H -0.956 V 1.468 H 1.906 V 0.647 H 0 Z"
         style="fill:#ffffff;fill-opacity:1;fill-rule:nonzero;stroke:none"
         id="path2576" />
    </g>
    <g
       id="g2578"
       transform="matrix(0.35277777,0,0,-0.35277777,-75.594906,79.12845)"
       style="fill:#ffffff">
      <g
         id="g2580"
         clip-path="url(#clipPath2584)"
         style="fill:#ffffff">
        <g
           id="g2586"
           transform="translate(342.0046,173.5708)"
           style="fill:#ffffff">
          <path
             d="M 0,0 -0.696,0.821 H -1.443 V 0 h -0.955 v 3.781 h 1.761 C 0.358,3.781 0.96,3.194 0.96,2.319 0.96,1.756 0.707,1.303 0.269,1.05 L 1.199,0 Z m -0.672,1.642 c 0.399,0 0.727,0.269 0.727,0.677 0,0.398 -0.328,0.643 -0.727,0.643 H -1.443 V 1.644 Z"
             style="fill:#ffffff;fill-opacity:1;fill-rule:nonzero;stroke:none"
             id="path2588" />
        </g>
      </g>
    </g>
    <g
       id="g2590"
       transform="matrix(0.35277777,0,0,-0.35277777,47.193738,17.89653)"
       style="fill:#ffffff">
      <path
         d="M 0,0 H -2.886 V 3.781 H -0.03 V 2.96 H -1.931 V 2.313 H -0.06 V 1.493 H -1.931 V 0.821 H 0 Z"
         style="fill:#ffffff;fill-opacity:1;fill-rule:nonzero;stroke:none"
         id="path2592" />
    </g>
    <g
       id="g2594"
       transform="matrix(0.35277777,0,0,-0.35277777,49.106888,17.89653)"
       style="fill:#ffffff">
      <path
         d="M 0,0 H -2.886 V 3.781 H -0.03 V 2.96 h -1.9 V 2.313 h 1.871 V 1.493 H -1.93 V 0.821 h 1.931 z"
         style="fill:#ffffff;fill-opacity:1;fill-rule:nonzero;stroke:none"
         id="path2596" />
    </g>
    <g
       id="g2598"
       transform="matrix(0.35277777,0,0,-0.35277777,-75.594906,79.12845)"
       style="fill:#ffffff">
      <g
         id="g2600"
         clip-path="url(#clipPath2604)"
         style="fill:#ffffff">
        <g
           id="g2606"
           transform="translate(357.71,177.3521)"
           style="fill:#ffffff">
          <path
             d="M 0,0 C 1.204,0 2,-0.757 2,-1.891 2,-3.024 1.205,-3.781 0,-3.781 H -1.687 V 0 Z m -0.01,-2.96 c 0.652,0 1.05,0.428 1.05,1.069 0,0.642 -0.398,1.07 -1.05,1.07 H -0.73 V -2.96 Z"
             style="fill:#ffffff;fill-opacity:1;fill-rule:nonzero;stroke:none"
             id="path2608" />
        </g>
        <g
           id="g2610"
           transform="translate(365.7275,175.4565)"
           style="fill:#ffffff">
          <path
             d="m 0,0 c 0,-1.104 -0.906,-1.96 -2.02,-1.96 -1.115,0 -2.025,0.856 -2.025,1.96 0,1.104 0.905,1.965 2.025,1.965 C -0.901,1.965 0,1.1 0,0 m -0.96,0 c 0,0.622 -0.468,1.104 -1.061,1.104 -0.592,0 -1.06,-0.482 -1.06,-1.104 0,-0.622 0.468,-1.104 1.06,-1.104 0.593,0 1.061,0.477 1.061,1.104 z"
             style="fill:#ffffff;fill-opacity:1;fill-rule:nonzero;stroke:none"
             id="path2612" />
        </g>
      </g>
    </g>
    <g
       id="g2614"
       transform="matrix(0.35277777,0,0,-0.35277777,55.669608,17.89653)"
       style="fill:#ffffff">
      <path
         d="M 0,0 H -0.935 V 1.796 L -2.05,0.262 H -2.339 L -3.453,1.794 V -0.001 H -4.389 V 3.78 h 0.613 L -2.194,1.556 -0.612,3.78 H 0 Z"
         style="fill:#ffffff;fill-opacity:1;fill-rule:nonzero;stroke:none"
         id="path2616" />
    </g>
    <g
       id="g2618"
       transform="matrix(0.35277777,0,0,-0.35277777,-75.594906,79.12845)"
       style="fill:#ffffff">
      <g
         id="g2620"
         clip-path="url(#clipPath2624)"
         style="fill:#ffffff">
        <g
           id="g2626"
           transform="translate(375.3005,200.6079)"
           style="fill:#ffffff">
          <path
             d="M 0,0 -0.985,1.069 H -1.391 V 0 h -0.453 v 2.53 h 0.945 c 0.531,0 0.852,-0.303 0.852,-0.729 C -0.039,1.51 -0.215,1.247 -0.486,1.142 L 0.566,0 Z m -0.899,1.478 c 0.266,0 0.403,0.14 0.403,0.323 0,0.182 -0.139,0.318 -0.403,0.318 H -1.391 V 1.477 Z"
             style="fill:#ffffff;fill-opacity:1;fill-rule:nonzero;stroke:none"
             id="path2628" />
        </g>
        <g
           id="g2630"
           transform="translate(374.4438,199.3813)"
           style="fill:#ffffff">
          <path
             d="m 0,0 c -1.301,0 -2.355,1.054 -2.355,2.354 -10e-4,1.301 1.053,2.355 2.354,2.355 1.3,0.001 2.355,-1.053 2.355,-2.354 v 0 C 2.353,1.055 1.3,0.002 0,0 m 0,4.375 c -1.116,0 -2.021,-0.904 -2.021,-2.02 0,-1.116 0.905,-2.021 2.021,-2.021 1.116,0 2.021,0.905 2.021,2.021 C 2.02,3.471 1.116,4.375 0,4.376 Z"
             style="fill:#ffffff;fill-opacity:1;fill-rule:nonzero;stroke:none"
             id="path2632" />
        </g>
        <g
           id="g2634"
           transform="translate(234.6643,199.1333)"
           style="fill:#ffffff">
          <path
             d="m 0,0 c -1.705,0 -3.087,-1.382 -3.087,-3.087 0,-1.705 1.382,-3.086 3.087,-3.086 1.705,0 3.087,1.381 3.087,3.086 C 3.084,-1.383 1.704,-0.002 0,0"
             style="fill:#ffffff;fill-opacity:1;fill-rule:nonzero;stroke:none"
             id="path2636" />
        </g>
        <g
           id="g2638"
           transform="translate(215.7021,215.0088)"
           style="fill:#ffffff">
          <path
             d="m 0,0 3.213,-3.213 c 4.032,4.032 9.606,6.52 15.749,6.52 6.143,0 11.718,-2.489 15.75,-6.52 L 37.925,0 C 33.074,4.851 26.365,7.875 18.962,7.875 11.56,7.875 4.851,4.851 0,0"
             style="fill:#ffffff;fill-opacity:1;fill-rule:nonzero;stroke:none"
             id="path2640" />
        </g>
        <g
           id="g2642"
           transform="translate(221.498,209.2129)"
           style="fill:#ffffff">
          <path
             d="m 0,0 3.213,-3.213 c 2.551,2.552 6.079,4.127 9.952,4.127 3.873,0 7.404,-1.575 9.955,-4.127 L 26.333,0 C 22.963,3.371 18.301,5.482 13.167,5.482 8.033,5.482 3.371,3.372 0,0"
             style="fill:#ffffff;fill-opacity:1;fill-rule:nonzero;stroke:none"
             id="path2644" />
        </g>
        <g
           id="g2646"
           transform="translate(227.2622,203.4482)"
           style="fill:#ffffff">
          <path
             d="m 0,0 3.213,-3.213 c 2.315,2.31 6.063,2.31 8.379,0 L 14.804,0 C 12.842,1.963 10.178,3.063 7.402,3.055 4.536,3.055 1.92,1.89 0,0"
             style="fill:#ffffff;fill-opacity:1;fill-rule:nonzero;stroke:none"
             id="path2648" />
        </g>
        <g
           id="g2650"
           transform="translate(246.0669,204.3306)"
           style="fill:#ffffff">
          <path
             d="m 0,0 c 1.701,-2.331 2.709,-5.197 2.709,-8.284 0,-7.78 -6.331,-14.112 -14.112,-14.112 -7.78,0 -14.111,6.332 -14.111,14.112 0,3.087 1.008,5.953 2.709,8.284 l -3.244,3.245 c -2.52,-3.182 -4.001,-7.182 -4.001,-11.529 0,-10.269 8.379,-18.647 18.647,-18.647 10.269,0 18.648,8.378 18.648,18.647 0,4.347 -1.512,8.347 -4.001,11.529 z"
             style="fill:#ffffff;fill-opacity:1;fill-rule:nonzero;stroke:none"
             id="path2652" />
        </g>
      </g>
    </g>
  </g>
</svg>
